<?xml version="1.0" encoding="UTF-8"?>
<svg width="382px" height="117px" viewBox="0 0 382 117" version="1.1" xmlns="http://www.w3.org/2000/svg" xmlns:xlink="http://www.w3.org/1999/xlink">
    <!-- Generator: Sketch 49 (51002) - http://www.bohemiancoding.com/sketch -->
    <title>descomplica-logo</title>
    <desc>Created with Sketch.</desc>
    <defs></defs>
    <g id="Page-1" stroke="none" stroke-width="1" fill="none" fill-rule="evenodd">
        <g id="descomplica-logo" transform="translate(0.000000, 0.751847)" fill-rule="nonzero">
            <path d="M93.2307695,0.434964372 L12.583294,15.496786 C5.71967911,16.8313778 0,23.6949927 0,31.7025435 L0,82.7983435 C0,91.1872062 5.71967911,97.6695092 12.583294,99.004101 L93.4214254,115.209858 C103.526192,117.307074 112.105711,109.490179 112.105711,98.6227891 L112.105711,17.7846577 C111.915055,5.77333154 103.526192,-1.47159533 93.2307695,0.434964372 Z" id="Shape" fill="#00E88F"></path>
            <g id="Group" transform="translate(7.000618, 27.317456)" fill="#000000">
                <path d="M25.4108965,43.0882493 C23.1230248,45.7574329 19.6912174,47.6639926 15.687442,47.6639926 C6.72661139,47.6639926 0.244308401,40.4190657 0.244308401,30.3142993 C0.244308401,20.2095329 6.91726736,12.964606 15.687442,12.964606 C19.1192495,12.964606 22.169745,14.2991978 24.4576166,16.3964134 L24.4576166,0.571967911 L33.0371353,0.571967911 L33.0371353,46.9013687 L25.9828644,46.9013687 L25.4108965,43.0882493 Z M8.82382706,30.3142993 C8.82382706,36.2246344 12.0649786,40.0377538 16.6407218,40.0377538 C21.788433,40.0377538 24.4576166,36.2246344 24.4576166,30.3142993 C24.4576166,24.4039642 21.5977771,20.5908448 16.6407218,20.5908448 C12.0649786,20.5908448 8.82382706,24.4039642 8.82382706,30.3142993 Z" id="Shape"></path>
                <path d="M55.9158517,47.6639926 C46.1923972,47.6639926 38.7568144,40.4190657 38.7568144,30.3142993 C38.7568144,19.8282209 45.4297734,12.964606 55.1532278,12.964606 C65.2579943,12.964606 70.9776734,19.8282209 70.9776734,28.9797075 C70.9776734,30.3142993 70.9776734,31.839547 70.5963614,33.1741388 L47.526989,33.1741388 C48.2896129,37.3685702 51.1494525,40.2284097 55.9158517,40.0377538 C58.7756913,40.0377538 61.8261868,38.512506 63.9234025,35.0806985 L70.7870174,38.512506 C67.3552099,44.6134971 62.9701226,47.6639926 55.9158517,47.6639926 Z M47.908301,26.5011799 L62.3981547,26.5011799 C62.0168428,22.3067485 59.5383152,19.6375649 55.1532278,19.6375649 C50.7681405,19.6375649 48.4802689,22.1160926 47.908301,26.5011799 Z" id="Shape"></path>
                <path d="M74.4094808,22.8787164 C74.4094808,17.1590373 78.9852241,12.583294 86.9927749,12.583294 C92.3311421,12.583294 96.3349174,15.2524776 98.6227891,18.3029731 L93.2844219,23.0693724 C92.1404861,21.3534687 89.8526144,19.8282209 86.420807,19.8282209 C83.7516234,19.8282209 82.0357197,20.9721567 82.0357197,22.8787164 C82.0357197,24.5946202 82.7983435,25.738556 87.7553988,26.8824918 C94.6190137,28.5983955 98.813445,30.8862672 98.813445,37.1779142 C98.813445,43.4695612 93.2844219,47.6639926 86.039495,47.6639926 C80.7011279,47.6639926 76.6973525,45.185465 73.265545,40.4190657 L78.6039122,36.0339784 C81.6544077,39.6564418 83.7516234,40.6097217 86.9927749,40.6097217 C89.2806465,40.6097217 90.8058943,39.4657859 90.8058943,37.7498821 C90.8058943,35.4620105 88.5180227,34.5087306 82.7983435,33.1741388 C77.6506323,31.839547 74.4094808,28.9797075 74.4094808,22.8787164 Z" id="Shape"></path>
            </g>
            <g id="Group" transform="translate(116.300142, 25.410896)" fill="#000000">
                <path d="M17.5403493,49.5705523 C7.62623881,49.5705523 0.571967911,42.3256254 0.571967911,32.220859 C0.571967911,22.1160926 7.62623881,14.8711657 17.5403493,14.8711657 C24.4039642,14.8711657 29.7423314,17.5403493 32.9834829,23.6413403 L25.738556,27.2638038 C23.4506843,23.6413403 21.1628127,22.3067485 17.5403493,22.3067485 C12.3926381,22.3067485 9.15148657,26.1198679 9.15148657,32.030203 C9.15148657,37.9405381 12.2019821,41.7536575 17.5403493,41.7536575 C20.9721567,41.7536575 23.4506843,40.4190657 25.738556,36.7966023 L32.9834829,40.4190657 C29.9329873,46.9013687 24.5946202,49.5705523 17.5403493,49.5705523 Z" id="Shape"></path>
                <path d="M69.5894292,32.220859 C69.5894292,42.3256254 62.5351583,49.5705523 52.4303918,49.5705523 C42.3256254,49.5705523 35.2713545,42.3256254 35.2713545,32.220859 C35.2713545,22.1160926 42.3256254,14.8711657 52.4303918,14.8711657 C62.5351583,14.8711657 69.5894292,22.1160926 69.5894292,32.220859 Z M60.6285986,32.220859 C60.6285986,26.5011799 57.578103,22.4974045 52.0490799,22.4974045 C46.9013687,22.4974045 43.4695612,26.5011799 43.4695612,32.220859 C43.4695612,38.1311941 46.5200568,41.9443135 52.0490799,41.9443135 C57.578103,41.7536575 60.6285986,37.9405381 60.6285986,32.220859 Z" id="Shape"></path>
                <path d="M83.697971,25.5479 L83.697971,48.8079284 L75.1184523,48.8079284 L75.1184523,15.6337896 L82.1727232,15.6337896 L82.7446911,18.6842851 C85.6045307,16.0151015 89.4176501,14.6805097 93.2307695,14.6805097 C98.3784807,14.6805097 101.23832,16.5870694 102.572912,19.256253 C105.432752,16.2057575 109.627183,14.6805097 113.821614,14.6805097 C123.545069,14.6805097 124.879661,21.5441246 124.879661,28.4077396 L124.879661,48.6172724 L116.300142,48.6172724 L116.300142,28.2170836 C116.300142,23.6413403 114.96555,22.3067485 111.724399,22.3067485 C108.864559,22.3067485 106.195375,23.6413403 104.09816,25.5479 C104.09816,26.5011799 104.09816,27.4544597 104.09816,28.4077396 L104.09816,48.6172724 L95.3279852,48.6172724 L95.3279852,28.2170836 C95.3279852,23.6413403 93.9933934,22.3067485 90.7522419,22.3067485 C88.6550262,22.3067485 85.7951866,23.6413403 83.697971,25.5479 Z" id="Shape"></path>
                <path d="M141.085418,46.1387448 L141.085418,60.4379426 L132.505899,60.4379426 L132.505899,15.6337896 L139.56017,15.6337896 L140.322794,19.256253 C142.801322,16.3964134 146.042473,14.6805097 150.046249,14.6805097 C159.007079,14.6805097 165.489382,21.9254366 165.489382,32.030203 C165.489382,42.1349694 158.816423,49.3798963 150.046249,49.3798963 C146.614441,49.5705523 143.563946,48.2359605 141.085418,46.1387448 Z M156.909864,32.220859 C156.909864,26.3105239 153.859368,22.4974045 149.092969,22.4974045 C143.945258,22.4974045 141.276074,26.3105239 141.276074,32.220859 C141.276074,38.1311941 144.135914,41.9443135 149.092969,41.9443135 C153.668712,41.7536575 156.909864,38.1311941 156.909864,32.220859 Z" id="Shape"></path>
                <path d="M181.69514,48.8079284 C180.932516,48.8079284 180.169892,48.9985844 179.216612,48.9985844 C173.306277,48.9985844 169.87447,45.9480888 169.87447,38.8938179 L169.87447,2.28787164 L178.453988,2.28787164 L178.453988,36.9872582 C178.453988,39.8470978 179.407268,40.6097217 181.69514,40.6097217 L181.69514,48.8079284 Z" id="Shape"></path>
                <path d="M191.418594,0 C194.46909,0 196.756961,2.47852761 196.756961,5.52902314 C196.756961,8.38886269 194.278434,10.8673903 191.418594,10.8673903 C188.558755,10.8673903 186.080227,8.38886269 186.080227,5.52902314 C185.889571,2.28787164 188.368099,0 191.418594,0 Z M187.033507,48.6172724 L187.033507,15.4431336 L195.613026,15.4431336 L195.613026,48.6172724 L187.033507,48.6172724 Z" id="Shape"></path>
                <path d="M218.301086,49.5705523 C208.386976,49.5705523 201.332705,42.3256254 201.332705,32.220859 C201.332705,22.1160926 208.386976,14.8711657 218.301086,14.8711657 C225.164701,14.8711657 230.503068,17.5403493 233.74422,23.6413403 L226.499293,27.2638038 C224.211421,23.6413403 221.923549,22.3067485 218.301086,22.3067485 C213.153375,22.3067485 209.912223,26.1198679 209.912223,32.030203 C209.912223,37.9405381 212.962719,41.7536575 218.301086,41.7536575 C221.732893,41.7536575 224.211421,40.4190657 226.499293,36.7966023 L233.74422,40.4190657 C230.503068,46.9013687 225.164701,49.5705523 218.301086,49.5705523 Z" id="Shape"></path>
                <path d="M257.957528,45.9480888 C255.479,48.4266165 252.047193,49.7612082 248.424729,49.7612082 C241.75177,49.7612082 235.841435,44.994809 235.841435,38.512506 C235.841435,31.4582351 241.75177,27.2638038 248.806041,27.2638038 C252.237849,27.2638038 254.716376,28.5983955 256.43228,30.1236433 L256.43228,26.6918358 C256.43228,23.8319963 253.763096,22.1160926 250.140633,22.1160926 C247.662105,22.1160926 244.61161,22.6880605 241.179802,24.5946202 L238.701275,18.3029731 C242.895706,16.0151015 246.708826,15.0618217 251.665881,15.0618217 C260.436055,15.0618217 265.202455,20.0188769 265.202455,28.4077396 L265.202455,48.9985844 L258.33884,48.9985844 L257.957528,45.9480888 Z M250.521945,42.7069373 C253.572441,42.7069373 255.669656,40.9910336 255.860312,38.32185 C255.860312,35.6526664 253.763096,33.9367627 250.521945,33.9367627 C247.471449,33.9367627 244.802266,35.8433224 244.802266,38.32185 C244.802266,40.9910336 247.280793,42.7069373 250.521945,42.7069373 Z" id="Shape"></path>
            </g>
        </g>
    </g>
</svg>